# xmcd CD database file
#
# Track frame offsets:
#	150
#	43126
#	65406
#	90162
#	114234
#	144464
#	172142
#	200428
#	225320
#	246985
#
# Disc length: 3641 seconds
#
# Revision: 0
# Processed by: cddbd v1.5.2PL0 Copyright (c) Steve Scherf et al.
# Submitted via: CDex 1.70beta2
#
DISCID=810e370a
DTITLE=John Abercrombie - Structures
DYEAR=1900
DGENRE=Jazz
TTITLE0=Jazz Folk
TTITLE1=The Touch of Your Lips 
TTITLE2=Moon and Sand 
TTITLE3=Walter Pigeon 
TTITLE4=Everything I Love 
TTITLE5=Embraceable You 
TTITLE6=3 for Three 
TTITLE7=Turn Out the Stars 
TTITLE8=Missing You 
TTITLE9=How Deep is the Ocean
EXTD=
EXTT0=
EXTT1=
EXTT2=
EXTT3=
EXTT4=
EXTT5=
EXTT6=
EXTT7=
EXTT8=
EXTT9=
PLAYORDER=
